<svg xmlns="http://www.w3.org/2000/svg" viewBox="0 0 612.56 808.69"><defs><style>.cls-1{fill:#5dd481;stroke:#00e713;stroke-miterlimit:10;}</style></defs><title>logo</title><g id="Layer_2" data-name="Layer 2"><g id="Layer_1-2" data-name="Layer 1"><path class="cls-1" d="M581.5,490.14C549.09,561.43,498.33,605,470.07,629.23a484.57,484.57,0,0,1-125.63,77.86c4.84-11.83,11.84-29.22,19.94-50.37,45.42-118.55,77.47-195.53,83.38-284.3A673.87,673.87,0,0,0,437,200.72,1070,1070,0,0,1,425.1,366.48a1074.09,1074.09,0,0,1-62.57,232.76A537.24,537.24,0,0,1,307.06,714q-3.82,28-7.64,56-2.48,18.12-4.94,36.25-5.12-17.71-10.24-35.43l.12-1.29a765.28,765.28,0,0,0,2.29-99.26c-6.53-155.7-59-265.67-69.95-287.9a673.47,673.47,0,0,0-95.13-143.34,1070.72,1070.72,0,0,1,72.54,149.52A1078.31,1078.31,0,0,1,263.87,684.1a137.21,137.21,0,0,0-67.65-51.7S164.8,620.47,112.84,579C64.38,540.38,4.17,443.17.66,329.58c-2-63.92,14.53-116,27.44-156.73A563.39,563.39,0,0,1,68.9,76.06a543.14,543.14,0,0,1,36.38-58.15c.68,18.4,4.63,44.76,22.13,67.22,23.47,30.12,60.54,33.13,74.45,41.61,29,17.68,62.11,44.55,92.53,79,29.22-49.15,65.73-82.53,94.81-109.09a563.38,563.38,0,0,1,83.73-63.42A542.2,542.2,0,0,1,533.51,1.06c-8.62,16.27-18.37,41.08-14.45,69.27,5.27,37.83,35.87,59,43.67,73.26C604.49,220.12,639.5,362.56,581.5,490.14Z"/></g></g></svg>